<svg xmlns="http://www.w3.org/2000/svg" width="256" height="256" viewBox="0 0 100 100"><rect width="100" height="100" rx="20" fill="#e4c590"></rect><path fill="#000000" d="M34.05 24.64Q40.85 24.64 45.04 28.34Q49.22 32.05 49.22 38.58L49.22 38.58Q49.22 44.22 45.41 49.01Q41.60 53.81 35.52 56.63Q29.43 59.45 23.04 59.45L23.04 59.45Q22.29 59.45 21.68 59.38L21.68 59.38L22.02 57.48Q26.64 56.87 30.93 54.52Q35.21 52.18 37.90 48.40Q40.58 44.63 40.58 39.87L40.58 39.87Q40.58 34.90 37.76 31.98Q34.94 29.06 29.23 29.06L29.23 29.06Q24.47 29.06 19.47 31.30Q14.47 33.54 10.39 37.15L10.39 37.15L8.62 35.24Q13.72 30.55 20.25 27.59Q26.78 24.64 34.05 24.64L34.05 24.64ZM21.41 34.16L21.41 72.58L13.18 75.36L13.18 36.94L21.41 34.16ZM76.21 24.64Q83.01 24.64 87.20 28.34Q91.38 32.05 91.38 38.58L91.38 38.58Q91.38 44.22 87.57 49.01Q83.76 53.81 77.68 56.63Q71.59 59.45 65.20 59.45L65.20 59.45Q64.45 59.45 63.84 59.38L63.84 59.38L64.18 57.48Q68.80 56.87 73.09 54.52Q77.37 52.18 80.06 48.40Q82.74 44.63 82.74 39.87L82.74 39.87Q82.74 34.90 79.92 31.98Q77.10 29.06 71.39 29.06L71.39 29.06Q66.63 29.06 61.63 31.30Q56.63 33.54 52.55 37.15L52.55 37.15L50.78 35.24Q55.88 30.55 62.41 27.59Q68.94 24.64 76.21 24.64L76.21 24.64ZM63.57 34.16L63.57 72.58L55.34 75.36L55.34 36.94L63.57 34.16Z"></path></svg>