<?xml version="1.0" encoding="UTF-8"?>
<svg id="Layer_1" data-name="Layer 1" xmlns="http://www.w3.org/2000/svg" viewBox="0 0 584.81 368.08">
  <defs>
    <style>
      .cls-1 {
        fill: #fff;
      }

      .cls-1, .cls-2 {
        stroke-width: 0px;
      }

      .cls-2 {
        fill: #e5c899;
      }
    </style>
  </defs>
  <path class="cls-1" d="m80.35,157.01c-.05.26-.08.65.15.92.1.12.23.2.38.23.23.11.51.16.84.16.41,0,.8-.09,1.18-.26.37-.17.74-.43,1.13-.81.35-.34.68-.67.98-.99.32-.34.66-.8,1.05-1.41.36-.57.65-1.02.88-1.36.24-.35.54-.88.92-1.64.36-.71.62-1.2.79-1.48.18-.31.45-.82.78-1.51.34-.69.54-1.11.61-1.25,3.99-7.65,8.12-14.92,12.28-21.59,5.66-.91,12.24-2.31,19.56-4.15,8-1.87,16.29-4.33,24.64-7.32,8.35-2.99,16.87-6.58,25.33-10.68,8.47-4.1,16.43-8.99,23.66-14.53,7.25-5.55,13.08-11.44,17.32-17.49,4.27-5.85,6.94-11.73,7.96-17.49.97-5.53.28-10.2-2.06-13.87-4.21-7.59-12.75-12.55-25.4-14.73-6.56-.86-12.32-1.3-17.12-1.3-18.04,0-35.27,3.89-51.21,11.57-14.69,6.79-23.93,14.71-27.47,23.54-.74,1.99-1.35,4.34-1.82,7-1.25,7.11.2,11.87,4.33,14.13l.11.05c1.03.27,1.35.3,1.52.3.7,0,1.32-.24,1.84-.7.51-.46.83-1.01.94-1.65.21-1.17-.3-2.4-1.52-3.68-1.87-1.83-2.45-4.86-1.72-8.99.4-2.26,1.18-4.79,2.3-7.48,1.03-1.83,2.34-3.61,3.91-5.31,1.58-1.71,3.14-3.18,4.65-4.38,1.51-1.21,3.43-2.5,5.71-3.85,2.28-1.35,4.2-2.42,5.72-3.19,1.52-.77,3.49-1.73,5.89-2.87,14.8-6.52,30.2-9.82,45.75-9.82,5.61,0,11.68.55,18.04,1.65,5.97,1.23,11.13,3.39,15.33,6.43,4.15,3,6.68,7.05,7.52,11.99.23,2.39.2,4.48-.1,6.2-.83,4.7-2.98,9.53-6.4,14.34-3.44,4.84-7.59,9.34-12.33,13.37-7.14,5.95-15.07,11.15-23.56,15.46-8.51,4.32-18.4,8.61-29.37,12.75-13.64,4.67-26.67,7.93-38.73,9.69,6.25-9.65,14.66-21.93,25.01-36.51,1.8-2.6,5.31-7.5,10.41-14.57,5.13-7.11,9.03-12.72,11.59-16.68.31-.45.47-.79.52-1.06.13-.74-.09-1.41-.64-1.93-.99-.94-2.37-1.02-3.81-.09l-.12.11c-1,1.26-2.35,3.29-4,6.03-1.65,2.72-2.95,4.71-3.89,5.96-2.67,3.94-7.12,10.42-13.22,19.26-6.15,8.9-10.87,15.82-14.03,20.55-3.66,5.21-7.87,11.78-12.51,19.54-.57.05-1.32.13-2.25.23-1.07.12-1.88.2-2.41.25l-.11.02c-.17.06-.55.12-1.39.12-.38,0-1.08-.02-2.09-.07-1.03-.05-1.84-.07-2.42-.07-3.14,0-4.8.75-5.07,2.29-.1.58,0,1.23.32,1.94l.12.27.3.02c2.36.19,4.17.29,5.39.29,2.14,0,4.34-.11,6.56-.33-4.83,8.21-8.54,14.41-11.03,18.42-3.97,6.16-6.07,10.08-6.4,11.99Z"/>
  <path class="cls-1" d="m224.72,122.79c1.06-1.77,1.92-3.23,2.6-4.35.68-1.13,1.73-2.75,3.11-4.8,1.4-2.09,2.34-3.49,2.83-4.21.49-.72,1.57-2.29,3.24-4.71,1.76-2.55,2.68-3.87,2.96-4.25,1.02-1.22,1.65-2.43,1.86-3.62.21-1.16-.03-2.13-.7-2.87-.66-.73-1.53-1.1-2.58-1.1-1.29,0-2.37.44-3.22,1.29-1.86,1.83-4.67,4.61-8.42,8.36-3.76,3.74-7.07,7.02-9.94,9.83-2.87,2.81-5.45,5.29-7.67,7.38-1.9,1.82-3.24,3.08-4,3.77-.77.69-1.97,1.7-3.57,3.01-1.35,1.1-2.62,2.03-3.77,2.77.14-.7.8-2.59,3.17-7.65,2.67-5.71,3.1-7.1,3.2-7.65.27-1.53-.07-3.41-1.01-5.58-.99-2.28-2.35-3.43-4.05-3.43h-.49c-.85.1-1.66.24-2.39.41-.77.18-1.53.46-2.27.83-.72.36-1.32.68-1.8.94-.51.28-1.15.75-1.94,1.43-.77.65-1.33,1.16-1.69,1.5-.35.34-.97.95-1.88,1.84-.9.89-1.55,1.52-1.96,1.91-5.14,5.11-8.78,9.8-10.81,13.95-.32.64-.5,1.07-.55,1.36-.19,1.09.07,1.97.78,2.62.67.61,1.58.92,2.72.92,1.05,0,2.07-.29,3.06-.86,2.66-1.57,4.44-2.64,5.29-3.18.85-.54,2.07-1.37,3.62-2.46,1.52-1.07,3.12-2.32,4.78-3.72h.25c.31,0,.53.06.62.16.09.11.07.35.04.48-.04.23-.25.82-1.01,2.35-.66,1.33-1.04,2.3-1.16,2.98l-.3,1.73c-.27,1.54.03,2.85.89,3.9.87,1.05,2.04,1.59,3.49,1.59,1.52,0,2.92-.6,4.13-1.76,2.89-2.26,6.26-5.22,10.01-8.82,3.74-3.59,7.86-7.65,12.25-12.07,3.72-3.75,6.58-6.59,8.53-8.49-.66.99-1.49,2.23-2.49,3.72-1.82,2.73-3.21,4.85-4.14,6.31-.93,1.47-2.1,3.34-3.51,5.62-1.4,2.27-2.66,4.45-3.75,6.47-1.08,2.03-2.08,4.08-2.91,6-.75,1.11-1.23,2.22-1.42,3.29-.21,1.2-.12,2.24.26,3.1.42.95,1.23,1.45,2.34,1.45.09,0,.28,0,1.54-.3l.17-.08c1.66-1.16,3.3-2.56,4.86-4.16,1.56-1.59,3.23-3.44,4.98-5.5,1.74-2.04,3.14-3.61,4.2-4.67,6.28-6.81,11.51-12.23,15.57-16.12l-3.33,14.47-.27,1.51c-.59,3.33-.58,6.11.04,8.31.83,2.47,2.97,3.73,6.36,3.73,2.53,0,4.92-.7,7.09-2.09.97-.58,2.02-1.25,3.11-2,1.11-.76,2.31-1.63,3.58-2.61,1.28-.98,2.39-1.83,3.33-2.56.95-.72,2.2-1.73,3.71-3,1.52-1.27,2.59-2.17,3.22-2.7l.29-.24c-.07.14-.13.27-.18.37-.78,1.62-1.31,3.24-1.59,4.81-.36,2.02-.23,3.67.39,4.92.73,1.42,2.25,2.14,4.51,2.14.75,0,1.65-.1,2.69-.3.76-.19,1.57-.44,2.4-.73.82-.29,1.55-.56,2.17-.8.63-.25,1.44-.6,2.38-1.06.95-.46,1.66-.81,2.14-1.05l2.34-1.19c1.08-.55,1.8-.93,2.12-1.13,3.36-1.87,5.63-3.14,6.83-3.82.85-.47,1.99-1.18,3.39-2.09-1.06,1.79-2.17,3.7-3.36,5.75-1.42,2.71-2.18,4.48-2.34,5.4-.12.68-.08,1.5.11,2.42l.04.12c.51,1.03,1.38,1.58,2.53,1.58,1.73,0,3.17-.64,4.25-1.86,1.9-1.78,4.4-4.54,7.43-8.22,3.01-3.65,5.26-6.25,6.7-7.71,5.13-5.29,9.62-8.96,13.35-10.91.1.37.14,1.02-.07,2.19-.08.47-.22,1.11-.41,1.92-.19.83-.32,1.41-.38,1.73-.21.94-.78,2.98-1.68,6.05-.91,3.1-1.52,5.53-1.82,7.22-.28,1.58-.43,2.73-.47,3.51-.08,1.38.33,2.6,1.24,3.63.91,1.05,2.08,1.58,3.48,1.58.34,0,.83-.1,1.49-.31,1.15-.35,2.28-.86,3.37-1.53,1.07-.66,2.39-1.63,3.94-2.88,1.56-1.26,2.5-2.01,2.9-2.31,1.81-1.54,3.47-2.96,5-4.28-.12.34-.25.67-.35,1l-.2,1.15c-.57,3.23.29,5.31,2.54,6.16.73.31,1.52.47,2.35.47,2.15,0,4.29-.66,6.35-1.95,3.82-2.34,7.18-5.98,9.98-10.86l.83-1.62c.41-.8.69-1.39.86-1.75.17-.38.35-.89.57-1.56.09-.29.18-.58.25-.86.68.82,1.59,1.61,2.7,2.35,1.53,1.02,3.14,1.68,4.77,1.98.5.1,1.23.16,2.24.16,3.14,0,6.56-.96,10.17-2.87,1.38-.76,2.12-1.55,2.27-2.44.11-.6-.06-1.12-.47-1.5-.88-.8-2.35-.64-3.63.24-2.38,1.12-4.74,1.68-7,1.68-1.28,0-2.45-.18-3.46-.54-.58-.22-1.13-.53-1.63-.93-.52-.41-1.02-.93-1.5-1.54-.51-.65-.92-1.17-1.23-1.58-.3-.39-.67-.98-1.12-1.75-.39-.66-.65-1.11-.79-1.36,0-.77-.25-1.34-.74-1.71-.45-.34-1.09-.57-1.95-.71-.95-.15-1.27-.24-1.37-.29l-.2-.04c-.68,0-1.54.35-2.61,1.06-1.14.76-1.77.98-2.1,1.04l-.14.05c-2.54,1.31-5.17,3.48-7.84,6.42-.24.16-.47.34-.69.57-3.21,3.05-6.39,5.79-9.46,8.14-3.08,2.35-6.89,5.05-11.38,8.05-.67.6-1.25.89-1.7.81-.11-.02-.13-.06-.15-.08-.04-.06-.16-.32.02-1.14l.42-2.38c.26-1.47,1.41-5.91,3.4-13.19.47-1.55.79-2.85.97-3.87.4-2.26.16-4.26-.71-5.94l-.06-.09c-.77-.93-1.82-1.41-3.12-1.41-1.19,0-2.37.34-3.5,1-.97.54-1.95,1.14-2.91,1.79-.96.65-1.8,1.24-2.52,1.78-.74.54-1.62,1.29-2.63,2.23l-.25.24c-.88.82-1.56,1.45-2.03,1.89-.54.5-1.35,1.33-2.43,2.47-1.09,1.16-1.81,1.91-2.13,2.27l-2.32,2.56c-1.21,1.34-1.94,2.13-2.19,2.38-1.5,1.68-2.74,3.07-3.74,4.19,2.76-4.76,5.12-8.52,7.03-11.22.38-.59,1.15-1.46,2.27-2.58,1.6-1.59,1.9-2.03,1.99-2.25.33-.82.17-1.58-.49-2.18-.59-.54-1.27-.82-2.02-.82h-.08c-2.17.37-4.17,2.07-5.95,5.06-.32.5-.65,1.04-.99,1.59-.16.11-.32.22-.48.36-3.24,2.43-5.98,4.35-8.14,5.7-2.16,1.35-4.87,2.84-8.05,4.41-5.16,2.66-9.75,4.43-13.7,5.3-.54.2-.77.13-.85.1-.03-.01-.12-.06-.18-.27-.17-.58-.14-1.26.08-2.03.49-1.74,1.19-3.48,2.08-5.16.89-1.69,1.73-3.08,2.49-4.11.78-1.05,1.98-2.63,3.6-4.74.42-.5.7-1.15.84-1.95.16-.92.04-1.64-.37-2.13-.39-.46-1-.69-1.81-.69-.38,0-.76.06-1.11.17-.34.11-.63.23-.87.37-.26.15-.53.38-.8.68-.24.27-.43.48-.55.62-.12.15-.32.4-.58.74-.24.33-.42.56-.57.73-.51.72-.94,1.36-1.34,1.95-.31.21-.63.46-.95.78-2.09,1.86-5.35,4.44-9.68,7.68-4.33,3.24-7.71,5.6-10.06,7.03-3.5,2.1-6.01,3.17-7.44,3.17-1.06,0-1.84-.46-2.35-1.36-.25-.56-.41-2.04.27-5.9.39-2.19,1.37-5.92,2.93-11.1,1.57-5.22,2.54-8.87,2.89-10.86.18-1.02.07-1.76-.34-2.24-.32-.38-.8-.58-1.42-.58-1.02,0-2.31.52-3.93,1.59-1.55,1.02-2.85,2.09-3.88,3.17-1.83,1.96-4.49,4.87-7.9,8.65-3.44,3.8-6.6,7.22-9.38,10.14-2.16,2.27-4.3,4.43-6.4,6.43.37-.79.74-1.57,1.12-2.34.74-1.52,1.65-3.18,2.69-4.93Zm-29.99-9.07c-.8.98-2.21,2.39-4.18,4.18l-3.47,2.95c-2.13,1.81-3.75,3.11-4.83,3.86-.86.6-1.39.87-1.71.98.4-1.03,1.88-3.17,6.2-7.56,3.55-3.6,6.74-5.9,9.52-6.85-.43.9-.95,1.72-1.53,2.44Zm158.87,14.39c0-.22,0-.37.01-.45.1-.58.29-1.17.55-1.76.27-.61.64-1.31,1.07-2.08.45-.8.77-1.41.92-1.77,2.33-4.13,5.17-7.3,8.43-9.4.65-.4,1.44-.75,2.35-1.03-.02.32-.03.7-.03,1.15,0,.81-.04,1.4-.1,1.75-.1.55-.2.75-.24.81l-.06.13c-.84,2.62-2.13,5.09-3.83,7.34-1.7,2.24-3.76,4.01-6.04,5.23-.18.06-.46.18-.89.39-.38.18-.7.32-.96.41-.26.09-.54.17-.82.24-.12.03-.22.03-.26,0,0,0-.08-.08-.12-.4.01-.12.02-.31.02-.55Z"/>
  <path class="cls-1" d="m289.25,106.83c.77,0,1.43-.3,1.93-.88.36-.38,1.09-1.24,2.24-2.61,1.11-1.33,2-2.34,2.64-3l.07-.09c1.36-2.22.59-3.5-.3-4.19-1.12-.84-2.5-.67-3.7.43-.63.58-1.3,1.43-1.97,2.49l-1.04,1.49c-.19.24-.47.59-.87,1.07-.4.49-.7.85-.9,1.12-.17.25-.3.61-.39,1.13-.13.76.02,1.46.47,2.07.46.63,1.09.96,1.82.96Z"/>
  <path class="cls-1" d="m49.15,333.97c-.05.26-.08.65.15.92.1.12.23.2.39.23.23.11.51.16.84.16.4,0,.8-.09,1.18-.26.37-.17.74-.44,1.13-.82.35-.34.68-.67.98-.99.32-.34.66-.8,1.05-1.41.36-.57.65-1.02.88-1.36.24-.35.54-.89.92-1.64.36-.71.62-1.2.79-1.48.18-.3.44-.81.78-1.51.34-.69.54-1.11.61-1.25,3.99-7.65,8.12-14.92,12.28-21.59,5.66-.91,12.24-2.31,19.56-4.15,8.01-1.87,16.3-4.34,24.64-7.33,8.34-2.99,16.86-6.58,25.33-10.68,8.47-4.1,16.43-8.99,23.66-14.53,7.25-5.55,13.07-11.43,17.32-17.49,4.27-5.84,6.94-11.73,7.96-17.49.97-5.53.28-10.2-2.06-13.87-4.21-7.59-12.75-12.55-25.4-14.73-6.56-.86-12.31-1.3-17.12-1.3-18.04,0-35.27,3.89-51.21,11.57-14.69,6.79-23.93,14.71-27.47,23.54-.74,1.99-1.35,4.34-1.82,7-1.25,7.12.2,11.87,4.33,14.13l.11.04c1.03.27,1.35.31,1.52.31.7,0,1.32-.24,1.84-.7.51-.46.83-1.01.94-1.65.21-1.17-.3-2.4-1.52-3.68-1.87-1.84-2.45-4.86-1.72-8.99.4-2.26,1.18-4.79,2.3-7.48,1.03-1.83,2.34-3.61,3.91-5.3,1.58-1.71,3.14-3.18,4.65-4.38,1.51-1.21,3.43-2.5,5.71-3.85,2.28-1.35,4.2-2.42,5.72-3.19,1.52-.77,3.49-1.73,5.89-2.87,14.8-6.52,30.2-9.82,45.75-9.82,5.61,0,11.68.55,18.04,1.65,5.97,1.23,11.13,3.39,15.33,6.43,4.15,3,6.68,7.05,7.52,11.99.23,2.39.2,4.48-.1,6.2-.83,4.7-2.98,9.53-6.4,14.34-3.44,4.84-7.59,9.34-12.33,13.37-7.15,5.95-15.07,11.15-23.56,15.45-8.52,4.32-18.41,8.61-29.37,12.75-13.64,4.67-26.67,7.93-38.73,9.69,6.26-9.66,14.67-21.94,25.01-36.51,1.79-2.58,5.29-7.48,10.41-14.57,5.13-7.11,9.03-12.72,11.59-16.68.31-.45.47-.79.52-1.06.13-.74-.09-1.41-.65-1.93-.99-.93-2.37-1.02-3.81-.09l-.12.11c-1,1.26-2.35,3.29-4.01,6.03-1.65,2.72-2.95,4.72-3.89,5.96-2.68,3.96-7.12,10.43-13.22,19.26-6.15,8.9-10.87,15.82-14.03,20.55-3.67,5.22-7.88,11.79-12.51,19.54-.57.05-1.32.13-2.25.23-1.07.12-1.88.2-2.41.25l-.11.02c-.17.05-.55.12-1.39.12-.38,0-1.08-.02-2.09-.07-1.03-.05-1.84-.07-2.42-.07-3.14,0-4.8.75-5.07,2.29-.1.58,0,1.23.32,1.94l.12.27.3.02c2.36.19,4.17.29,5.39.29,2.14,0,4.34-.11,6.56-.33-4.81,8.19-8.52,14.39-11.03,18.42-3.97,6.16-6.07,10.08-6.4,11.99Z"/>
  <path class="cls-1" d="m350.53,304.74c-.57,3.23.29,5.31,2.54,6.16.73.31,1.52.47,2.35.47,2.15,0,4.29-.66,6.35-1.95,3.82-2.34,7.18-5.98,9.98-10.86l.83-1.62c.41-.8.69-1.39.86-1.75.17-.38.35-.89.57-1.56.09-.29.18-.58.25-.86.68.82,1.59,1.61,2.7,2.35,1.53,1.02,3.14,1.69,4.77,1.98.5.1,1.23.16,2.24.16,3.14,0,6.56-.96,10.17-2.87,1.37-.76,2.12-1.55,2.27-2.44.11-.6-.06-1.12-.48-1.5-.88-.8-2.35-.64-3.63.24-2.38,1.12-4.74,1.68-7,1.68-1.28,0-2.45-.18-3.46-.54-.58-.22-1.13-.53-1.63-.93-.52-.41-1.02-.93-1.5-1.54-.51-.65-.92-1.17-1.23-1.58-.29-.38-.67-.97-1.12-1.75l-.79-1.36c0-.77-.25-1.34-.74-1.71-.45-.34-1.09-.57-1.95-.71-.95-.15-1.27-.24-1.37-.29l-.2-.04c-.68,0-1.54.35-2.61,1.06-1.14.76-1.77.98-2.1,1.04l-.14.05c-2.55,1.32-5.2,3.5-7.88,6.46-.36.21-.72.47-1.12.8-7,5.96-13.44,11.1-19.13,15.29-.09.05-.33.18-1.02.62l-1.13.72c-.19.12-.54.33-1.07.64-.52.3-.91.51-1.15.63-.26.12-.63.29-1.12.5-.49.21-.87.36-1.18.45-.31.09-.66.17-1.07.24-.39.07-.77.1-1.12.1-.89,0-1.41-.1-1.71-.2-.84-1.37-1.01-3.48-.52-6.27.04-.23.13-.59.26-1.07.14-.53.24-.91.26-1.09,4.94-15.11,13.35-32.02,24.98-50.28,1.74.34,3.48.75,5.23,1.21l.18.05.17-.08c1.32-.63,2.09-1.46,2.29-2.45,1.48-.01,3.09-.02,4.85-.02h2.95c.25,0,.66-.02,1.24-.07.54-.05.93-.07,1.16-.07,6.21,0,12.7.89,19.28,2.65l.18.05.17-.08c1.35-.65,2.13-1.5,2.31-2.52.16-.89-.11-1.69-.8-2.38-.67-.67-1.44-1.01-2.29-1.01-.51,0-.89.04-1.16.13-.28-.04-.67-.09-1.18-.13-.55-.05-.96-.09-1.26-.14-4.29-.43-8.79-.65-13.4-.65-1.76,0-4.4.05-8.07.14-3.52.1-6.23.14-8.04.14h-.37c.25-.4.55-.88.9-1.43.6-.97,1.06-1.7,1.38-2.18.46-.67,1.4-2.08,2.83-4.21,1.41-2.1,2.65-3.86,3.68-5.23,1.02-1.35,2.1-2.66,3.22-3.89h.01c.55-.67.86-1.24.95-1.76.14-.78-.08-1.5-.64-2.14-1.07-1.23-2.83-1.38-4.27.14-1.09,1.22-2.12,2.52-3.05,3.86-.94,1.36-2.05,3.03-3.3,4.98l-2.58,4.03c-1.51,2.3-3.16,4.96-4.91,7.9-3.21-.23-6.51-.35-9.87-.35-1.76,0-4.4.05-8.07.14-3.52.1-6.23.14-8.04.14h-.37c.25-.4.55-.88.9-1.43.6-.97,1.06-1.7,1.38-2.18.46-.67,1.4-2.08,2.83-4.21,1.41-2.1,2.65-3.86,3.68-5.23,1.02-1.35,2.1-2.66,3.22-3.89h.01c.55-.67.86-1.24.95-1.76.14-.78-.08-1.5-.64-2.14-1.07-1.23-2.83-1.38-4.27.14-1.09,1.22-2.12,2.52-3.05,3.86-.94,1.36-2.05,3.03-3.3,4.98l-2.58,4.03c-1.54,2.35-3.22,5.06-5,8.06-2.31.05-6.86.16-13.64.32-6.98.17-12.46.25-16.27.25h-.14c-.26,0-.74-.05-1.42-.14-.73-.1-1.26-.15-1.63-.15-1.1,0-2.53.49-3.08,2.83v.1c-.04.95.2,1.69.68,2.18.46.47,1.12.71,1.98.71.3,0,.78-.02,1.45-.07.64-.05,1.1-.07,1.38-.07h.62c10.01-.9,18.76-1.5,26.08-1.78.1.49.3.91.6,1.22.03.03.08.06.11.09-2.44,4.1-5.3,9.01-8.51,14.63-4.58,8.03-8.53,15.93-11.79,23.57-.19.09-.39.19-.58.32-7.6,5.33-17.1,10.1-28.22,14.19-4.39,1.28-7.34,1.92-8.77,1.92-.02,0-.11,0-.39-.06-.28-.06-.47-.08-.56-.08h0c-.77-.04-1.31-.35-1.64-.96-.37-.67-.47-1.41-.32-2.27.62-3.5,2.22-6.83,4.76-9.9.51.11,1.09.16,1.72.16,3.59,0,8.04-1.67,13.25-4.99,3.22-2.28,5.11-4.85,5.6-7.67.14-.78.18-1.33.13-1.65-.12-1.2-.64-2.15-1.56-2.84-.89-.66-1.98-1-3.24-1h-.47c-3.3.25-7.16,2.23-11.46,5.89-2.01,1.79-3.96,3.95-5.79,6.4-.73.92-1.36,1.73-1.91,2.43-.17.06-.34.13-.52.21-6.86,2.38-14.29,4.34-22.1,5.84.47-.91.95-1.83,1.44-2.75.56-.55.9-1.1,1-1.67.01-.08.01-.14.02-.22,8.89-16.35,21.71-35.42,38.2-56.82,1.76-.51,2.8-1.62,3.09-3.3.18-1-.02-1.88-.58-2.59-.57-.72-1.45-1.09-2.61-1.09h-.46l-.14.11c-.97.79-1.89,1.71-2.74,2.74-.84,1.02-1.75,2.27-2.73,3.71-.96,1.43-1.71,2.49-2.21,3.16-2.19,3.09-5.21,7.51-8.98,13.15-3.79,5.65-6.46,9.61-7.96,11.79-6.62,10.77-12.13,20.07-16.47,27.78-.57.21-1.14.52-1.71.93-2.76,1.72-5.52,2.59-8.2,2.59-2.24,0-4.25-.62-5.99-1.85-1-.72-2.12-2.07-3.31-4-1.2-1.94-2.09-3.22-2.73-3.9-.13-.5-.49-.97-1.07-1.39-.62-.45-1.3-.67-2.03-.67-1.15,0-2.1.64-2.77,1.84-.61.75-1.6,1.93-3.03,3.58,1.1-1.66,2.2-3.22,3.29-4.69.44-.87.49-1.03.51-1.15.13-.75-.09-1.39-.64-1.87-.51-.44-1.14-.66-1.89-.66-.91,0-1.69.34-2.32,1.02h0c-.63.71-1.52,2.06-2.71,4.12-1.16,1.99-1.9,3.21-2.24,3.68-.44.79-.9,1.63-1.37,2.49-.17.08-.34.18-.52.29-7.6,5.33-17.1,10.1-28.22,14.19-4.39,1.28-7.34,1.92-8.77,1.92-.02,0-.11,0-.39-.06-.28-.06-.47-.08-.56-.08h0c-.77-.04-1.31-.35-1.64-.96-.37-.67-.47-1.41-.32-2.27.62-3.5,2.22-6.83,4.76-9.9.51.11,1.09.16,1.72.16,3.59,0,8.04-1.67,13.25-4.99,3.22-2.28,5.11-4.85,5.6-7.67.14-.78.18-1.33.13-1.65-.12-1.2-.64-2.15-1.56-2.84-.89-.66-1.98-1-3.24-1h-.47c-3.3.25-7.16,2.23-11.46,5.89-2.01,1.79-3.96,3.95-5.79,6.4-2.7,3.41-4.15,5.31-4.44,5.82-2.08,3.54-3.36,6.62-3.81,9.17-.25,1.44-.26,2.92-.03,4.41.25,1.57,1.04,2.83,2.35,3.72,1.28.87,2.8,1.31,4.53,1.31h.45c1.12-.05,2.29-.18,3.49-.4,1.19-.22,2.48-.57,3.85-1.03,1.36-.46,2.46-.84,3.31-1.16.85-.31,2.08-.8,3.69-1.45,1.6-.65,2.71-1.09,3.35-1.34,4.9-2.25,9.01-4.31,12.2-6.1,1.43-.8,2.93-1.73,4.48-2.74-1.69,3.27-3.51,6.85-5.46,10.77-.74,1.1-.89,1.53-.93,1.78-.16.88.1,1.66.73,2.25.61.57,1.37.86,2.27.86,1.64,0,2.85-.75,3.57-2.17.98-1.49,2.14-3.46,3.43-5.87,1.27-2.36,2.7-4.54,4.28-6.49,3.02-4.02,5.88-7.38,8.52-10,.33.42.77,1.02,1.34,1.78.84,1.14,1.47,1.96,1.92,2.5.46.56,1.12,1.26,1.95,2.06.85.82,1.73,1.48,2.63,1.95.9.48,1.89.82,2.94,1.02,1.28.29,2.53.44,3.71.44.24,0,.49-.02.73-.04-.57.45-.91.95-1.01,1.54-.18,1.01.33,1.98,1.58,2.91,1.35.67,1.85,1.72,1.58,3.28-.14.82-.6,2.07-1.36,3.73-.8,1.74-1.3,2.95-1.52,3.68-2.89,8.53-4.71,14.85-5.41,18.8-.68,3.83-.95,7.05-.82,9.57-.25,1.8.17,3.38,1.26,4.7,1.1,1.34,2.47,2.02,4.06,2.02,2.15,0,3.88-1.13,5.12-3.29,3.47-4.55,6.07-11.09,7.74-19.47.5-4.46.74-8.37.71-11.62-.03-3.29-.61-6.38-1.74-9.26-.9-1.75-.93-2.33-.9-2.49.02-.09.05-.19.06-.22.09-.12.6-.58,3.48-1.47,3.13-.86,9.16-2.79,17.96-5.75-1.46,2.75-2.39,5.19-2.75,7.27-.25,1.44-.26,2.92-.03,4.41.25,1.57,1.04,2.83,2.35,3.72,1.28.87,2.8,1.31,4.53,1.31h.45c1.12-.05,2.29-.18,3.49-.4,1.19-.22,2.48-.57,3.85-1.03,1.36-.46,2.46-.84,3.31-1.16.85-.31,2.08-.8,3.69-1.45,1.6-.65,2.71-1.09,3.35-1.34,4.91-2.25,9.01-4.31,12.2-6.1,1.85-1.04,3.82-2.28,5.88-3.66-.09.24-.19.48-.28.72-.93,2.51-1.6,4.92-1.99,7.14-.7,3.97-.2,7.08,1.53,9.29.99,1.01,2.48,1.52,4.44,1.52,2.86,0,5.65-.77,8.28-2.3,1.99-1.16,4.19-2.63,6.54-4.39,2.35-1.75,4.16-3.16,5.37-4.2,1.21-1.03,3.41-2.93,6.59-5.69.45-.39.87-.76,1.27-1.11-.87,2.41-1.52,4.73-1.89,6.87-.7,3.97-.2,7.08,1.53,9.29.99,1.01,2.48,1.52,4.44,1.52,2.86,0,5.65-.77,8.28-2.3,1.99-1.16,4.19-2.63,6.54-4.39,2.35-1.75,4.16-3.16,5.37-4.2.76-.65,1.91-1.64,3.45-2.97-.24.59-.46,1.17-.64,1.75l-.2,1.15Zm5.48.34c0-.22,0-.37.02-.45.1-.58.29-1.17.55-1.75.27-.61.63-1.31,1.07-2.08.45-.79.77-1.41.92-1.77,2.33-4.13,5.17-7.3,8.43-9.4.65-.4,1.44-.75,2.34-1.03-.02.32-.03.7-.03,1.15,0,.81-.04,1.4-.1,1.75-.1.55-.2.75-.24.81l-.06.13c-.84,2.62-2.13,5.09-3.83,7.34-1.7,2.24-3.76,4.01-6.04,5.23-.16.05-.46.18-.88.39-.37.18-.69.32-.96.41-.27.09-.54.17-.83.24-.12.03-.22.03-.26,0,0,0-.08-.08-.12-.4.01-.12.02-.31.02-.55Zm-87.53-21.37c3.23-2.25,4.62-2.86,5.24-2.98,0,.03,0,.06.01.09.02.14.03.23.04.23-.12.69-.85,1.91-3.58,3.76-2.29,1.33-4.47,2.25-6.52,2.75,1.06-1.07,2.67-2.36,4.81-3.85Zm-101.31,0c3.23-2.25,4.62-2.86,5.24-2.98,0,.03,0,.06.01.09.02.14.03.23.04.23-.12.69-.85,1.91-3.58,3.76-2.29,1.33-4.47,2.25-6.52,2.75,1.06-1.07,2.67-2.36,4.81-3.85Zm59.31,44.22l-.24,1.39c-3.05,10.36-5.23,13.26-6.57,13.78-.34-.34-1.02-2.15.65-11.61.74-4.18,1.31-7.16,1.7-8.81,1.13-4.19,2.56-8.39,4.26-12.51,1.36,4.82,1.43,10.79.21,17.76Zm98.88-36.58c-7,5.96-13.44,11.1-19.13,15.29-.09.05-.33.18-1.02.62l-1.13.72c-.19.12-.54.33-1.07.64-.52.3-.91.51-1.15.63-.26.12-.63.29-1.12.5-.49.21-.87.36-1.18.45-.31.09-.66.17-1.07.24-.39.07-.77.1-1.12.1-.89,0-1.41-.1-1.71-.2-.84-1.37-1.01-3.48-.52-6.27.04-.23.13-.59.26-1.07.14-.53.24-.91.26-1.09,4.86-14.85,13.06-31.44,24.38-49.34h.22c10.45-.94,19.53-1.55,27.04-1.82.17.02.35.04.52.06-2.61,4.35-5.72,9.7-9.28,15.92-4.61,8.08-8.58,16.02-11.85,23.7-.42.23-.86.53-1.34.93Z"/>
  <polygon class="cls-2" points="0 27.67 31.5 27.67 31.5 8.98 414.17 8.98 414.17 27.67 448.5 27.67 448.5 0 0 0 0 27.67"/>
  <polygon class="cls-2" points="417 359.11 34.33 359.11 34.33 340.42 0 340.42 0 368.08 448.5 368.08 448.5 340.42 417 340.42 417 359.11"/>
  <path class="cls-2" d="m452.56,51.14h7.12c.08,3.98.1,7.99.1,11.96v2.3c0,4.03-.02,8-.1,11.91l-4.73.51v1.84h13.8v-1.84l-4.73-.51c-.08-3.97-.1-7.96-.1-11.91v-2.3c0-4.04.02-8.04.1-11.96h7.12l1.06,5.89h2.58l-.37-8.19h-25.12l-.37,8.19h2.58l1.06-5.89Z"/>
  <path class="cls-2" d="m473.94,79.67h10.58v-1.84l-4.55-.62,2.59-7.62h10.76l2.58,7.69-4.58.55v1.84h12.42v-1.84l-3.53-.43-9.81-28.79h-2.76l-9.84,28.63-3.87.58v1.84Zm14.05-25.99l4.63,13.8h-9.33l4.7-13.8Z"/>
  <path class="cls-2" d="m527.08,71.62c0-4.32-2.35-6.99-8.42-9.34l-1.79-.69c-3.36-1.29-5.24-2.99-5.24-5.89,0-3.45,2.71-5.24,6.3-5.24,1.43,0,2.6.28,3.78.94l.96,5.18h2.76l.28-5.98c-1.98-1.47-4.42-2.44-7.5-2.44-5.84,0-10.3,3.22-10.3,8.51,0,4.69,3.22,7.36,7.91,9.2l1.75.69c4,1.56,5.8,2.9,5.8,5.89,0,3.59-2.9,5.61-7.27,5.61-2.01,0-3.37-.38-4.84-1.2l-.91-5.38h-2.76l-.28,6.44c2.12,1.33,5.47,2.44,8.93,2.44,6.3,0,10.86-3.31,10.86-8.74Z"/>
  <path class="cls-2" d="m534.25,51.14h7.12c.08,3.98.1,7.99.1,11.96v2.3c0,4.03-.02,8-.1,11.91l-4.73.51v1.84h13.8v-1.84l-4.73-.51c-.08-3.97-.1-7.96-.1-11.91v-2.3c0-4.04.02-8.04.1-11.96h7.12l1.06,5.89h2.58l-.37-8.19h-25.12l-.37,8.19h2.58l1.06-5.89Z"/>
  <path class="cls-2" d="m582.23,71.48l-1.03,5.89h-11.91c-.08-3.96-.09-7.99-.09-12.38h6.95l.59,4.37h2.07v-10.9h-2.07l-.63,4.42h-6.92c0-3.97.02-7.88.1-11.73h10.98l1.03,5.89h2.58l-.32-8.19h-22.86v1.84l4.27.49c.08,3.97.1,7.97.1,11.93v2.3c0,4.03-.02,8.01-.1,11.93l-4.27.49v1.84h23.78l.32-8.19h-2.58Z"/>
  <path class="cls-2" d="m452.56,112.14h7.12c.08,3.98.1,7.99.1,11.96v2.3c0,4.03-.02,8-.1,11.91l-4.73.51v1.84h13.8v-1.84l-4.73-.51c-.08-3.97-.1-7.96-.1-11.91v-2.3c0-4.04.02-8.04.1-11.96h7.12l1.06,5.89h2.58l-.37-8.19h-25.12l-.37,8.19h2.58l1.06-5.89Z"/>
  <path class="cls-2" d="m511.21,138.83l-4.27-.49c-.08-3.97-.1-7.97-.1-11.93v-2.3c0-4.03.02-8.01.1-11.93l4.27-.49v-1.84h-12.88v1.84l4.27.49c.08,3.88.1,7.78.1,11.65h-15.18c0-3.94.02-7.83.1-11.65l4.27-.49v-1.84h-12.88v1.84l4.27.49c.08,3.97.1,7.97.1,11.93v2.3c0,4.03-.02,8.01-.1,11.93l-4.27.49v1.84h12.88v-1.84l-4.29-.5c-.08-3.86-.08-7.85-.08-12.39h15.18c0,4.6,0,8.58-.08,12.39l-4.29.5v1.84h12.88v-1.84Z"/>
  <path class="cls-2" d="m520.86,138.33l-4.27.49v1.84h23.78l.32-8.19h-2.58l-1.03,5.89h-11.91c-.08-3.96-.09-7.99-.09-12.38h6.95l.59,4.37h2.07v-10.9h-2.07l-.63,4.42h-6.92c0-3.97.02-7.88.1-11.73h10.98l1.03,5.89h2.58l-.32-8.19h-22.86v1.84l4.27.49c.08,3.97.1,7.97.1,11.93v2.3c0,4.03-.02,8.01-.1,11.93Z"/>
  <path class="cls-2" d="m454.34,199.33l-4.27.49v1.84h12.61c8.7,0,12.15-4.23,12.15-8.42,0-3.67-2.55-6.71-8.66-7.6,5.05-1.04,7.14-3.97,7.14-7.26,0-4.42-3.68-7.54-9.98-7.54h-13.25v1.84l4.27.49c.08,3.97.1,7.96.1,11.93v2.3c0,4.03-.02,8.01-.1,11.93Zm4.34-26.37h3.3c4.74,0,7.18,1.47,7.18,5.7s-2.44,6.03-8.1,6.03h-2.48c0-3.97.02-7.88.1-11.73Zm2.52,13.85c6.44,0,9.25,2.16,9.25,6.44,0,4.05-2.9,6.3-8.88,6.3h-2.9c-.08-4.03-.09-8.16-.09-12.74h2.62Z"/>
  <path class="cls-2" d="m483.32,199.33l-4.27.49v1.84h23.78l.32-8.19h-2.58l-1.03,5.89h-11.91c-.08-3.96-.09-7.99-.09-12.38h6.95l.59,4.37h2.07v-10.9h-2.07l-.63,4.42h-6.92c0-3.97.02-7.88.1-11.73h10.98l1.03,5.89h2.58l-.32-8.19h-22.86v1.84l4.27.49c.08,3.97.1,7.96.1,11.93v2.3c0,4.03-.02,8.01-.1,11.93Z"/>
  <path class="cls-2" d="m527.63,193.62c0-4.32-2.35-6.99-8.42-9.34l-1.79-.69c-3.36-1.29-5.24-2.99-5.24-5.89,0-3.45,2.71-5.24,6.3-5.24,1.42,0,2.6.28,3.78.94l.96,5.18h2.76l.28-5.98c-1.98-1.47-4.42-2.44-7.5-2.44-5.84,0-10.3,3.22-10.3,8.51,0,4.69,3.22,7.36,7.91,9.2l1.75.69c4,1.56,5.8,2.9,5.8,5.89,0,3.59-2.9,5.61-7.27,5.61-2.01,0-3.37-.38-4.84-1.2l-.91-5.38h-2.76l-.28,6.44c2.12,1.33,5.47,2.44,8.93,2.44,6.3,0,10.86-3.31,10.86-8.74Z"/>
  <path class="cls-2" d="m546.3,170.84h-14.77l-.37,8.19h2.58l1.06-5.89h7.12c.08,3.98.1,7.99.1,11.96v2.3c0,4.03-.02,8-.1,11.91l-4.73.51v1.84h13.8v-1.84l-4.73-.51c-.08-3.97-.1-7.96-.1-11.91v-2.3c0-4.04.02-8.04.1-11.96h7.12l1.06,5.89h2.58l-.37-8.19h-10.35Z"/>
  <path class="cls-2" d="m464.29,263.36c7.13,0,14.03-6.03,14.03-16.1s-6.95-16.1-14.03-16.1-14.08,6.03-14.08,16.1,6.95,16.1,14.08,16.1Zm0-29.9c6.49,0,9.2,6.9,9.2,13.8s-2.71,13.8-9.2,13.8-9.25-6.9-9.25-13.8,2.76-13.8,9.25-13.8Z"/>
  <path class="cls-2" d="m502.27,234.14l1.03,5.89h2.58l-.32-8.19h-22.86v1.84l4.27.49c.08,3.97.1,7.96.1,11.93v2.3c0,4.03-.02,8.01-.1,11.93l-4.27.49v1.84h12.88v-1.84l-4.29-.49c-.08-3.94-.09-7.97-.09-12.34h7.26l.65,4.83h2.07v-11.36h-2.07l-.63,4.42h-7.29c0-3.97.02-7.88.1-11.73h10.98Z"/>
  <path class="cls-2" d="m455.57,288.03c.58-1.04.58-1.07.58-1.22,0-.5-.35-.96-1.11-1.48-.68-.46-1.24-.69-1.69-.69-.66,0-1.39.34-2.22,1.04-.85.72-1.27,1.41-1.27,2.1l-.4,27.26c0,1.02.16,2.75.46,5.12.38,2.96,1.55,4.46,3.49,4.46.53,0,1.18-.27,2.01-.83l.42-.29-.29-.42c-1.12-1.59-1.69-5.11-1.69-10.46,0-6.62.44-13.94,1.32-21.75.2-2.31.37-2.78.4-2.85Z"/>
  <path class="cls-2" d="m482.35,289.61l.29-.38v.49h.41s.01-.06.01-.06c.48-.14,1.06-.57,1.06-1.88,0-3.26-5.4-3.26-7.17-3.26-2.04,0-5.33.25-9.78.75-7.24.89-8.58,1.58-8.94,2.2l-.12.21.08.22c.37.99,1.27,2.16,3.46,2.16.73,0,1.77-.13,3.17-.41,1.33-.26,2.33-.39,2.98-.39.08,0,.16,0,.21.14-.02.39-.02.98-.02,1.83,0,1.77-.15,4.19-.46,7.19-.38,3.79-.6,6.24-.63,7.25-.19,2.18-.29,5.46-.29,9.76,0,3.03.12,4.95.36,5.87.75,3.17,2.77,3.83,4.33,3.83.25,0,1.08-.09,1.08-1.3v-.14l-.08-.12c-1.02-1.64-1.54-4.91-1.54-9.74,0-6.62.37-12.93,1.09-18.73.31-2,.53-3.51.67-4.52.17-1.25.36-1.61.44-1.71.02-.03.23-.25,1.34-.25h2.6c3.01,0,3.93.25,4.24.41.95.43,1.14.54,1.19.57Z"/>
  <path class="cls-2" d="m505.52,311.39c-.8-.2-1.19-.35-1.37-.44-.76-7.34-1.43-12.38-2-14.99-1.68-7.85-4.08-11.67-7.33-11.67-1.93,0-5.29,2.27-12.2,21.89-1.84,5.15-3.11,9.92-3.76,14.16-.02.09-.11.4-.49,1.42-.44,1.14-.49,1.53-.49,1.73,0,.62.37,1.23,1.1,1.83.7.57,1.37.86,1.98.86.51,0,.92-.21,1.21-.61l.09-.12v-.15c.04-.93.21-2.42.52-4.43.5-3.26.85-3.76.93-3.84.3-.26,1.57-.81,6.69-1.49,3.49-.46,6.08-.69,7.7-.69.3,0,.77-.04,1.41-.12.41-.05.76-.07,1.03-.07.03.17.05.45.05.9v1.88c-.04.93-.06,1.57-.06,1.92,0,1.4.17,2.41.51,3.1l.08.16.16.07c1.4.66,2.56.57,3.52-.1.57-.39.88-.93.93-1.58v-.12s-.03-.11-.03-.11c-.82-2.07-1.29-3.99-1.38-5.71.23.04.46.07.69.07.72,0,1.94-.3,1.94-2.34,0-.41-.19-1.13-1.41-1.41Zm-16.94.34c-2.79.51-3.32.57-3.42.57-.1,0-.22-.01-.27-.07-.07-.08-.11-.31-.05-.68.26-.96.5-1.69.74-2.21,1.3-3.68,2.62-7.36,3.96-11.02,3-7.35,4.72-8.51,5.47-8.54h0c.41,0,1.84.69,3.51,9.2.26,1.36.85,5.3,1.76,11.69-6.25.41-10.08.76-11.71,1.06Z"/>
  <path class="cls-2" d="m528.83,319.26c-1.21,0-2.85.33-5.01,1-2.03.63-3.61.96-4.71.96-3.15,0-4.67-2.38-4.67-7.26,0-2.69.25-6.8.75-12.2.5-5.44.75-9.58.75-12.29,0-1.29,0-5.21-2.51-5.21-.88,0-1.59.31-2.11.93l-.1.12v.16c-.05.44-.07.86-.07,1.25,0,.53.04,1.28.12,2.23.07.94.11,1.66.11,2.14,0,2.32-.18,5.87-.54,10.54-.36,4.69-.55,8.28-.55,10.68,0,3.83.45,6.61,1.37,8.5,1.31,2.75,3.75,4.14,7.24,4.14,4.49,0,8.57-.69,12.14-2.04l.32-.12v-.34c0-.75-.21-1.45-.63-2.09-.45-.69-1.11-1.06-1.88-1.06Z"/>
  <path class="cls-2" d="m553.08,284.7c-1.06,0-2.75,1.1-6.38,9.68-3.33,7.78-4.69,10.42-5.22,11.18-.75-.16-2.23-1.32-4.61-6.53-1.88-4.17-2.83-7.14-2.83-8.82,0-.09.03-.32.22-.79.2-.49.29-.89.29-1.22,0-.92-.21-1.8-.64-2.67-.59-1-1.4-1.51-2.39-1.51-.87,0-2.34.37-2.34,2.86s1.48,7.18,4.53,14.17c1.76,4,3.86,7.03,6.25,9-.69,2-1.36,4-2.01,5.99-1.42,4.01-2.07,5.04-2.33,5.3-.5.5-.87.85-1.09,1.03l-.26.22.11.32c.8,2.36,1.95,3.56,3.41,3.56.72,0,1.47-.28,2.25-.84l.23-.17-.03-.29c-.3-3.16,1.06-8.64,4.05-16.27,2.05-5.25,4.5-10.67,7.29-16.13.32-.68,1-1.62,2-2.79,1.06-1.24,1.78-2.2,2.18-2.93l.08-.14-.02-.16c-.08-.77-.55-2.06-2.74-2.06Z"/>
</svg>